<?xml version="1.0" encoding="utf-8"?>
<!-- Generator: Adobe Illustrator 21.0.2, SVG Export Plug-In . SVG Version: 6.00 Build 0)  -->
<svg version="1.1" id="Layer_1" xmlns="http://www.w3.org/2000/svg" xmlns:xlink="http://www.w3.org/1999/xlink" x="0px" y="0px"
	 viewBox="0 0 446.2 239.4" style="enable-background:new 0 0 446.2 239.4;" xml:space="preserve">
<path d="M417.8,73.2c0.1-8.3,0.1-16.5,0.3-24.7c0.2-12.9-4.9-25.6-13.9-34.6c-9-9.1-21.3-13.9-34.6-13.8c-38,0.4-76.6,0.3-113.9,0.2
	c-15.5,0-31-0.1-46.4-0.1h-46.5c-38.5,0-77,0-115.5,0C19.9,0.2,0.1,19.9,0.1,47C0,93.8,0,142.8,0,192.5c0,27.2,19.9,46.9,47.1,46.9
	c56.2,0,110,0,162.1,0c55.6,0,109.3,0,161.8,0c27.1,0,46.8-19.8,46.8-47.1c0-8.7,0-17.5,0-26.2c9.8,0,19.1,0,28.4,0
	c0-31.2,0-61.9,0-92.9C436.5,73.2,427.3,73.2,417.8,73.2z M394,191.3c0,14.9-9,24-23.9,24.1c-53.7,0-107.3,0-161,0
	c-53.5,0-107,0-160.5,0c-16,0-24.6-8.6-24.6-24.8c0-47.2,0-94.3,0-141.5c0-16.1,8.6-24.8,24.6-24.8c106.8,0,213.7,0,320.5,0
	c16.3,0,24.9,8.7,24.9,25C394,96.6,394,143.9,394,191.3z M97.8,107.2h89.1V68.8L328,133h-90.4v37.7L97.8,107.2z"/>
</svg>
