<?xml version="1.0" encoding="utf-8"?>
<!-- Generator: Adobe Illustrator 21.0.2, SVG Export Plug-In . SVG Version: 6.00 Build 0)  -->
<svg version="1.1" id="Layer_1" xmlns="http://www.w3.org/2000/svg" xmlns:xlink="http://www.w3.org/1999/xlink" x="0px" y="0px"
	 viewBox="0 0 446.2 239.4" style="enable-background:new 0 0 446.2 239.4;" xml:space="preserve">
<path d="M446.2,73.2c-9.7,0-18.9,0-28.4,0c0.1-8.3,0.1-16.5,0.3-24.7c0.2-12.9-4.9-25.6-13.9-34.6c-9-9.1-21.3-13.9-34.6-13.8
	c-38,0.4-76.6,0.3-113.9,0.2c-15.5,0-31-0.1-46.4-0.1h-46.5c-38.5,0-77,0-115.5,0C19.9,0.2,0.1,19.9,0.1,47C0,93.8,0,142.8,0,192.5
	c0,27.2,19.9,46.9,47.1,46.9c56.2,0,110,0,162.1,0c55.6,0,109.3,0,161.8,0c27.1,0,46.8-19.8,46.8-47.1c0-8.7,0-17.5,0-26.2
	c9.8,0,19.1,0,28.4,0C446.2,134.9,446.2,104.2,446.2,73.2z M394,191.3c0,14.9-9,24-23.9,24.1c-53.7,0-107.3,0-161,0
	c-53.5,0-107,0-160.5,0c-16,0-24.6-8.6-24.6-24.8c0-47.2,0-94.3,0-141.5c0-16.1,8.6-24.8,24.6-24.8c106.8,0,213.7,0,320.5,0
	c16.3,0,24.9,8.7,24.9,25C394,96.6,394,143.9,394,191.3z M193.2,193.3c-2.1,0-3.7,0-5.3,0c-42.8,0-85.6,0-128.4,0
	c-10.8,0-16.1-5.3-16.1-16.3c0-38.5,0-77,0-115.4c0-10.9,5.3-16.2,16.2-16.2c15,0,30-0.1,45,0.1c1.8,0,4.4,1.5,5.4,3
	c27.7,47.6,55.2,95.4,82.8,143.1C192.8,191.9,192.9,192.2,193.2,193.3z M123.3,45.3c1.7,0,2.8,0,3.9,0c30,0,59.9,0,89.9,0
	c2.7,0,4.5,0.6,6,3.2c27.3,47.4,54.8,94.8,82.2,142.2c0.3,0.6,0.6,1.2,1.1,2.3c-1.5,0.2-2.7,0.4-3.9,0.4c-30,0-59.9,0.1-89.9-0.1
	c-1.9,0-4.7-1.2-5.5-2.7c-27.7-47.6-55.3-95.3-82.8-143C124,47.1,123.9,46.6,123.3,45.3z"/>
</svg>
