<?xml version="1.0" encoding="utf-8"?>
<!-- Generator: Adobe Illustrator 21.0.2, SVG Export Plug-In . SVG Version: 6.00 Build 0)  -->
<svg version="1.1" id="Layer_1" xmlns="http://www.w3.org/2000/svg" xmlns:xlink="http://www.w3.org/1999/xlink" x="0px" y="0px"
	 viewBox="0 0 437.3 540.2" style="enable-background:new 0 0 437.3 540.2;" xml:space="preserve">
<g>
	<path d="M392.9,126.5c-4,0-10.1-2.2-18.5-6.7c-26.6-14.3-51.3-21.5-74-21.5c-26.6,0-50.3,6.7-71,20c-20.7,13.3-37.7,32.6-51.1,57.7
		h184.2c12.3,0,18.5,5.7,18.5,17c0,12.8-3.6,24.9-10.7,36.3c-7.2,11.4-14.7,17-22.6,17H158.3c-0.5,3.5-0.7,11.6-0.7,24.4
		c0,11.4,0.2,18.5,0.7,21.5h178.3c12.3,0,18.5,5.7,18.5,17c0,12.8-3.6,24.9-10.7,36.3c-7.2,11.4-14.7,17-22.6,17H176.1
		c11.8,25.7,28.2,45.3,49.2,58.8c21,13.6,45.3,20.3,72.9,20.3c19.2,0,42.4-4.2,69.6-12.6c20.2-6.4,33.5-9.6,40-9.6
		c18.7,0,28.1,8.1,28.1,24.4c0,13.8-3,27.1-8.9,40c-5.9,12.8-13.6,22.7-22.9,29.6c-10.9,7.9-26.6,14.3-47.4,19.2
		c-20.7,4.9-42.7,7.4-65.9,7.4c-55.3,0-102.9-15.7-142.8-47c-40-31.3-67.8-74.8-83.6-130.6H33.3c-3.5,0-7-1.4-10.7-4.1
		c-3.7-2.7-8.5-7.5-14.4-14.4C2.7,337.2,0,330.3,0,323.4c0-7.4,5.2-14.4,15.5-21.1c10.4-6.7,21.2-10,32.6-10h6.7
		c-0.5-3-0.7-10.1-0.7-21.5c0-12.8,0.2-21,0.7-24.4H43.7c-3.5,0-7-1.4-10.7-4.1c-3.7-2.7-8.5-7.5-14.4-14.4
		c-5.4-6.9-8.1-13.8-8.1-20.7c0-7.4,5.2-14.4,15.5-21.1c10.4-6.7,21.2-10,32.6-10H71c19.2-53.8,49.8-96.6,91.8-128.4
		C204.7,15.9,251.6,0,303.4,0c45.9,0,87.8,12.3,125.8,37c5.4,3,8.1,8.9,8.1,17.8c0,18.8-4.6,35.4-13.7,49.9
		C414.5,119.3,404.2,126.5,392.9,126.5z"/>
</g>
</svg>
