<?xml version="1.0" encoding="utf-8"?>
<!-- Generator: Adobe Illustrator 21.0.2, SVG Export Plug-In . SVG Version: 6.00 Build 0)  -->
<svg version="1.1" id="Layer_1" xmlns="http://www.w3.org/2000/svg" xmlns:xlink="http://www.w3.org/1999/xlink" x="0px" y="0px"
	 viewBox="0 0 413.6 413.6" style="enable-background:new 0 0 413.6 413.6;" xml:space="preserve">
<image style="display:none;overflow:visible;" width="404" height="404" xlink:href="C:\Users\andru\Downloads\energy-icon-18.png"  transform="matrix(0.24 0 0 0.24 158.311 158.311)">
</image>
<g>
	<path d="M206.8,0C92.8,0,0,92.8,0,206.8s92.8,206.8,206.8,206.8s206.8-92.8,206.8-206.8S320.8,0,206.8,0z M206.8,393.6
		c-103,0-186.8-83.8-186.8-186.8S103.8,20,206.8,20s186.8,83.8,186.8,186.8S309.8,393.6,206.8,393.6z"/>
	<path d="M376,203.6H258.5c-1.7-27.1-24.1-48.6-51.7-48.6c-5.2,0-10.3,0.8-15.1,2.2l0,0L122,56.7l51.2,110.6l0.1,0
		c-10.4,8.9-17.3,21.8-18.2,36.3H37.6c0,1.1-0.1,2.1-0.1,3.2c0,93.5,75.8,169.2,169.2,169.2S376,300.3,376,206.8
		C376,205.7,376,204.7,376,203.6z"/>
</g>
</svg>
