<?xml version="1.0" encoding="utf-8"?>
<!-- Generator: Adobe Illustrator 21.0.2, SVG Export Plug-In . SVG Version: 6.00 Build 0)  -->
<svg version="1.1" id="Layer_2" xmlns="http://www.w3.org/2000/svg" xmlns:xlink="http://www.w3.org/1999/xlink" x="0px" y="0px"
	 viewBox="0 0 564.8 325.4" style="enable-background:new 0 0 564.8 325.4;" xml:space="preserve">
<style type="text/css">
	.st0{fill:#FF6464;}
</style>
<path class="st0" d="M476.6,216.3C477.9,200,334.3,102,318.1,97.7c-8.2-2.2-89.4-2.2-167.6-1.6l24-16.6v-8.9L151.2,43h33.4v14.8
	c0,0,10.5,11.3,19,0c0-10.1,0-23.3,0-23.3L193.1,24H86.7L73.9,36v19c0,0,8.2,12.4,18.6,0c0-8.9,0-11.3,0-11.3l32.6-0.4l26.4,30.3
	l-39,22.7C51.4,96.9,0.4,97.7,0.4,97.7v72.7h238.1c0,0,31.8,30.7,32.2,38.4c0.4,7.8-8.2,8.5-8.2,8.5H0.4v64.5h112.7l21.3-19.1h9
	c-0.1,0.7-0.1,1.3-0.1,2c0,11.8,9.6,21.4,21.4,21.4c11.8,0,21.4-9.6,21.4-21.4c0-0.7,0-1.3-0.1-2h11.1c-0.1,0.7-0.1,1.3-0.1,2
	c0,11.8,9.6,21.4,21.4,21.4s21.4-9.6,21.4-21.4c0-0.7,0-1.3-0.1-2H251c-0.1,0.7-0.1,1.3-0.1,2c0,11.8,9.6,21.4,21.4,21.4
	c11.8,0,21.4-9.6,21.4-21.4c0-0.7,0-1.3-0.1-2h10.7l17.5,19.1h98c0,0,9.4,2.5,8.1-6.9c-1.2-9.4-18.1-22.5-18.1-22.5h47.4
	C457.3,252.5,475.4,232.5,476.6,216.3z M284.7,145.5l-17.1-27.6h20.2l19,27.6H284.7z M351.9,145.5h-28.7l-14.8-27.6h17.5l26,21
	V145.5z M555.8,325.1H9c-5,0-9-4.1-9-9v0c0-5,4.1-9,9-9h546.8c5,0,9,4.1,9,9v0C564.8,321,560.8,325.1,555.8,325.1z M531.8,216.4
	L521,64.2V0.5h43.7v63.7l-10.2,152.3H531.8z M522.6,287.8v-40.2h40.6v40.2H522.6z"/>
</svg>
