<?xml version="1.0" encoding="utf-8"?>
<!-- Generator: Adobe Illustrator 21.0.2, SVG Export Plug-In . SVG Version: 6.00 Build 0)  -->
<svg version="1.1" id="Layer_1" xmlns="http://www.w3.org/2000/svg" xmlns:xlink="http://www.w3.org/1999/xlink" x="0px" y="0px"
	 viewBox="0 0 386.5 606.2" style="enable-background:new 0 0 386.5 606.2;" xml:space="preserve">
<style type="text/css">
	.st0{fill:#FFFFFF;}
</style>
<path class="st0" d="M381.9,204.9c3.1-7,4.8-15.4,4.5-23C383.3,87.2,301.8,4.9,207,0.3C103.7-4.8,14.9,65.9,1.1,163.2
	c-2.7,19.1-0.7,35.9,7.9,53.4c17.6,35.9,33,72.9,50.1,109.1c4.4,9.3,4.8,17,1.3,26.8c-19.9,55.9-3.6,121.8,45.7,154.3
	c8.5,5.6,14.9,11.2,19.9,17.2v46.2c0,19.8,16.2,36.1,36.1,36.1h61.4c19.8,0,36.1-16.2,36.1-36.1v-48.3
	c63.1-34.5,89.6-106.3,65.4-173.5c-2.2-6.1-1.9-14.7,0.7-20.6C344,286.6,363.5,246,381.9,204.9z M269,321c-0.1,1.7-0.3,3.3-0.5,5
	c-0.6,5.2-6.6,12.8-11.4,13.9c-9.3,2.1-12.8-5.4-12.8-14c0-26.5-0.6-53,0.5-79.5c0.2-5,6.6-12.8,11.3-13.8c9-2,12.9,5.3,13,14.1
	c0,13,0,26,0,39C269.1,297.4,269.9,309.3,269,321z M222.8,183.8l-122-95.7c24.9,30.4,45.8,61,70.3,94.8c-40.8,0-80,0-121.2,0
	c1.9-49.1,21.4-89,62-116.5c49.6-33.7,102.4-36,154.5-6.1c46.5,26.7,69,68.8,71.8,123.8C298.7,184.2,260.7,184.3,222.8,183.8z"/>
</svg>
