<?xml version="1.0" encoding="utf-8"?>
<!-- Generator: Adobe Illustrator 21.0.2, SVG Export Plug-In . SVG Version: 6.00 Build 0)  -->
<svg version="1.1" id="Layer_1" xmlns="http://www.w3.org/2000/svg" xmlns:xlink="http://www.w3.org/1999/xlink" x="0px" y="0px"
	 viewBox="0 0 357.3 303.5" style="enable-background:new 0 0 357.3 303.5;" xml:space="preserve">
<style type="text/css">
	.st0{fill:#FFFFFF;}
</style>
<path class="st0" d="M355.4,159.4c-7.3-41.9-14.4-83.9-21.9-125.9C330,13.8,313.2,0.1,293.2,0C216.7,0,140.3,0,63.8,0
	C43.9,0.1,27,14.6,23.6,34.3C16,78.2,8.3,122.2,0.8,166.1c-2.5,14.8,0.5,28.2,11.3,39.2c9,9.1,20.3,12.3,32.7,12.3
	c35.5,0,71,0,106.5,0c0,11.1,0,21.7,0,32.1c-23.4,7.4-37.8,28.6-36.6,53.8c42.9,0,85.4,0,128,0c0.3-24.5-12.9-46-32.3-52.1
	c-3.7-1.2-4.8-3.1-4.6-7.7c0.2-8.7,0-17.4,0.1-26.1c35.8,0,71.6,0,107.3,0c21.3,0,37.3-11.8,42.6-31
	C358.4,177.4,357,168.4,355.4,159.4z M314.9,197.1c-29.3,0.1-58.6,0-88,0c-16.2,0-32.3,0-48.5,0c-44.3,0-88.6-0.4-132.9,0.2
	c-18.3,0.2-27.6-12.6-24.5-29.4c7.8-42.5,14.8-85.2,22.2-127.8c2.3-13.5,9.9-19.9,23.7-19.9c43.3,0,86.6,0,129.9,0
	c30.5,0,61,0,91.5,0c17,0,23.6,5.9,26.4,22.7c6.7,39.4,13.6,78.7,20.3,118c0.7,3.8,1.3,7.5,1.8,11.3
	C338.4,186.3,329.1,197,314.9,197.1z M178.8,178.2c-7.7,0-15.3-0.2-23,0.1c-3.6,0.1-6.2-0.9-8.8-3.5c-11.1-11-11.1-10.9-10-26.7
	c0.7-9,0.8-18,1.6-26.9c0.2-2.3,1.6-4.8,3.2-6.7c6.7-8,15.2-10.6,25.6-9.7c10.6,0.9,21.3,0,32,0.3c3,0.1,6.1,1.7,8.9,3.2
	c9.2,5,12,12.9,11.4,23.2c-0.5,9.4,1,18.9,1.2,28.4c0,2.3-1.1,5-2.5,6.9c-6.7,9.4-15.9,13.3-27.5,11.5
	C186.9,177.6,182.8,178.2,178.8,178.2z M80.8,178.2c-7.5,0-15-0.2-22.5,0.1c-3.8,0.1-6.2-1.5-9.1-3.9c-7.7-6.3-9.7-13.4-7.2-23.2
	c2.4-9.3,3.2-19,4.5-28.6c0.5-3.7,2.1-6.1,4.9-8.7c7.8-7.4,16.5-10,27.1-9.2c10.3,0.8,20.7,0.3,31,0.1c3.8-0.1,6.3,1.6,9.3,3.6
	c8,5.4,9.5,12.4,8.4,21.4c-1.3,9.9-1.1,20-2,29.9c-0.2,2.3-1.6,4.9-3.1,6.8c-7.7,9.4-17.4,13.8-29.7,11.7
	C88.6,177.6,84.7,178.2,80.8,178.2z M276.2,178.2c-3.3,0-6.7-0.4-10,0.1c-12.7,1.9-23.1-1.9-31.2-11.8c-1.3-1.6-2.6-3.6-2.7-5.4
	c-1-13.8-1.8-27.6-2.5-41.4c-0.1-1.4,1-2.9,1.6-4.4c0.2-0.4,0.8-0.6,1.1-1c6.1-7.6,13.7-10.3,23.5-9.5c10.6,0.9,21.3,0.4,31.9,0.1
	c4.2-0.1,7.4,1.5,10.9,3.6c8.6,5.1,12.6,12.1,13.3,22.1c0.7,10.4,3,20.7,4.4,31.1c0.2,1.4-0.2,3.3-1.1,4.4c-3,3.6-6.1,7.1-9.5,10.2
	c-1.3,1.2-3.5,1.8-5.3,1.8C292.5,178.3,284.3,178.2,276.2,178.2C276.2,178.2,276.2,178.2,276.2,178.2z M178.8,95.5
	c-6.3,0-12.7-0.3-19,0.1c-4.7,0.3-7.9-1.7-11.6-4.3c-6.7-4.7-8.6-10.4-7.7-18.2c1-7.9,0.7-16,1.4-23.9c0.2-2.3,1.8-4.8,3.4-6.6
	c5.9-6.5,13.3-8.3,22-7.7c10.3,0.7,20.6,0.1,31,0.2c7.7,0,16.8,8.9,17.1,16.4c0.4,9.5,1.2,19,1.4,28.4c0,2.1-1.1,4.7-2.5,6.4
	c-6,7.6-13.8,10.8-23.6,9.3C186.9,95,182.8,95.5,178.8,95.5z M267.4,95.5c-5.5,0-11-0.3-16.5,0.1c-5.9,0.5-10.3-1.5-15-5
	c-6-4.4-9.1-9.1-8.8-16.8c0.4-8.3-1-16.6-1.2-24.9c0-2.1,1.2-4.6,2.6-6.3c5.2-6.4,12.1-8.2,20.3-7.7c10.5,0.7,21,0.2,31.5,0.2
	c7.6,0,18.1,8.8,19.3,16.1c1.6,9.5,3,19.1,4.6,28.6c0.5,3-0.4,5.1-2.4,7.5c-5.5,6.9-12.3,9.4-20.9,8.3
	C276.5,95,271.9,95.5,267.4,95.5z M89.4,95.5c-5.8,0-11.7-0.3-17.5,0.1c-5.4,0.4-9.2-1.7-13.2-5.2c-5.1-4.3-6.4-8.7-5-15.1
	c1.8-8.3,2.8-16.7,4-25.1c0.5-3.5,2.1-5.8,4.8-8.1c6.7-5.8,14.1-7.9,22.9-7.3c10.1,0.6,20.3,0.1,30.5,0.2c7.5,0,15.9,8.4,15.5,15.7
	c-0.5,9.8-1,19.6-1.9,29.4c-0.2,2.1-1.7,4.4-3.2,6.1c-6.9,7.8-15.5,10.8-25.9,9.3C96.8,95,93.1,95.5,89.4,95.5z"/>
</svg>
