<?xml version="1.0" encoding="utf-8"?>
<!-- Generator: Adobe Illustrator 21.0.2, SVG Export Plug-In . SVG Version: 6.00 Build 0)  -->
<svg version="1.1" id="Layer_1" xmlns="http://www.w3.org/2000/svg" xmlns:xlink="http://www.w3.org/1999/xlink" x="0px" y="0px"
	 viewBox="0 0 19 20.4" style="enable-background:new 0 0 19 20.4;" xml:space="preserve">
<style type="text/css">
	.st0{fill:#FFFFFF;}
</style>
<path class="st0" d="M19,5.6C19,2.5,14.8,0,9.5,0S0,2.5,0,5.6C0,7,0.9,8.3,2.3,9.2c1.1,2.9,3.8,4.9,7.1,4.9c3.2,0,5.9-2,7-4.8
	C18,8.4,19,7.1,19,5.6z M9.4,13.2c-2.8,0-5.1-1.7-6.1-4.1C4.1,7.3,6.6,6,9.5,6c2.8,0,5.2,1.2,6.1,2.8C14.7,11.4,12.3,13.2,9.4,13.2z
	 M9.8,20.4L9.8,20.4c-0.4,0-0.7-0.3-0.7-0.7v-4c0-0.4,0.3-0.7,0.7-0.7h0c0.4,0,0.7,0.3,0.7,0.7v4C10.4,20.1,10.1,20.4,9.8,20.4z
	 M2.1,18.8L2.1,18.8c-0.3-0.2-0.4-0.6-0.2-0.9l2-3.5C4,14.1,4.4,14,4.7,14.2l0,0c0.3,0.2,0.4,0.6,0.2,0.9l-2,3.5
	C2.8,18.9,2.4,19,2.1,18.8z M16.4,18.6l-2-3.5c-0.2-0.3-0.1-0.7,0.2-0.9l0,0c0.3-0.2,0.7-0.1,0.9,0.2l2,3.5c0.2,0.3,0.1,0.7-0.2,0.9
	h0C17,19,16.6,18.9,16.4,18.6z"/>
</svg>
