<?xml version="1.0" encoding="utf-8"?>
<!-- Generator: Adobe Illustrator 21.0.2, SVG Export Plug-In . SVG Version: 6.00 Build 0)  -->
<svg version="1.1" id="Layer_2" xmlns="http://www.w3.org/2000/svg" xmlns:xlink="http://www.w3.org/1999/xlink" x="0px" y="0px"
	 viewBox="0 0 564.8 325.4" style="enable-background:new 0 0 564.8 325.4;" xml:space="preserve">
<style type="text/css">
	.st0{fill:#FFFFFF;}
</style>
<g>
	<path class="st0" d="M134.4,262.7h9c-0.1,0.7-0.1,1.3-0.1,2c0,11.8,9.6,21.4,21.4,21.4s21.4-9.6,21.4-21.4c0-0.7,0-1.3-0.1-2h11.1
		c-0.1,0.7-0.1,1.3-0.1,2c0,11.8,9.6,21.4,21.4,21.4s21.4-9.6,21.4-21.4c0-0.7,0-1.3-0.1-2H251c-0.1,0.7-0.1,1.3-0.1,2
		c0,11.8,9.6,21.4,21.4,21.4s21.4-9.6,21.4-21.4c0-0.7,0-1.3-0.1-2h10.7l17.5,19.1h98c0,0,9.4,2.5,8.1-6.9
		c-1.2-9.4-18.1-22.5-18.1-22.5h47.4c0.1,0.1,18.2-19.9,19.4-36.1C477.9,200,334.3,102,318.1,97.7c-8.2-2.2-89.4-2.2-167.6-1.6
		l24-16.6v-8.9L151.2,43h33.4v14.8c0,0,10.5,11.3,19,0c0-10.1,0-23.3,0-23.3L193.1,24H86.7L73.9,36v19c0,0,8.2,12.4,18.6,0
		c0-8.9,0-11.3,0-11.3l32.6-0.4l26.4,30.3l-39,22.7C51.4,96.9,0.4,97.7,0.4,97.7v72.7h238.1c0,0,31.8,30.7,32.2,38.4
		c0.4,7.8-8.2,8.5-8.2,8.5H0.4v64.5h112.7L134.4,262.7z M325.9,117.9l26,21v6.6h-28.7l-14.8-27.6H325.9z M267.6,117.9h20.2l19,27.6
		h-22.1L267.6,117.9z"/>
	<path class="st0" d="M555.8,307.1H9c-4.9,0-9,4-9,9c0,4.9,4,9,9,9h546.8c5,0,9-4.1,9-9C564.8,311.2,560.8,307.1,555.8,307.1z"/>
</g>
</svg>
