<?xml version="1.0" encoding="utf-8"?>
<!-- Generator: Adobe Illustrator 21.0.2, SVG Export Plug-In . SVG Version: 6.00 Build 0)  -->
<svg version="1.1" id="Layer_1" xmlns="http://www.w3.org/2000/svg" xmlns:xlink="http://www.w3.org/1999/xlink" x="0px" y="0px"
	 viewBox="0 0 391.7 355.9" style="enable-background:new 0 0 391.7 355.9;" xml:space="preserve">
<style type="text/css">
	.st0{fill:#FFFFFF;}
</style>
<path class="st0" d="M380.9,241.9c-2.1-2-2.5-3.6-1.2-6.3c14.6-32.2,6.8-69.9-19.4-92.8c-13.2-11.6-28.9-17.6-46.5-18.5
	c-1-0.1-2.1-0.1-3.1-0.2c-0.2,0-0.5-0.2-1-0.5c0-7.6,0-15.2,0-23.1c1.9,0,3.8,0,5.7,0c1.6,0,3.9-1,4.8-2c3.5-3.7,6.8-7.5,9.6-11.4
	c1.7-2.3,2.7-4.8,3.3-7.3c1.3-6-4.7-10-11.5-13.5c-1.8-1-4.6-1.7-7-1.8c-12-0.2-24.1-0.1-36.2-0.1c-11.9,0-23.8,0-35.6,0
	c-1.6,0-3.7-0.1-4.9,0.5c-10.8,5.2-17.4,12.9-10.9,21.8c3,4.1,6.5,8.1,10.1,12c0.8,0.8,3,1.7,4.5,1.7c2.1,0,4.1,0,6.2,0
	c0,7.7,0,15.4,0,23.2c-25.8,0-51.2,0-77,0c-0.1-1.1-0.3-2.3-0.3-3.4c0-24,0-47.9-0.1-71.9c0-2.4,0.8-3.7,2.9-4.8
	c9.5-5.3,14.3-15.6,12-25.1c-2.6-10.4-11.5-17.8-22.3-18.4c-1.4-0.1-2.9,0-4.3,0C113.1,0.1,67.8,0.3,22.5,0C11.8-0.1,4,3,0,13.5
	c0,80.9,0,161.8,0,242.7c2.5,8.6,6.9,16,15.4,19.6c4.8,2,10.2,2.6,15.6,3.8c7,39.3,29,66.6,69.3,74.4c41.7,8.1,72.1-10.6,93.2-46.7
	c0.5,0.8,1.1,1.5,1.5,2.4c18.4,34.3,54.1,51.9,92.2,44.6c34.3-6.6,62.5-34.9,67.7-71.7c0.5-3.3,1.7-3.9,4.7-3.9
	c9.8,0.1,30.8,2.8,32.1-16.5C391.7,255.2,387.5,248.2,380.9,241.9z M36.2,130.4c-6.6,0-12-5.4-12-12V52.2c0-6.6,5.4-12,12-12h96.3
	c6.6,0,12,5.4,12,12v66.2c0,6.6-5.4,12-12,12H36.2z M272.1,324.9c-21,0.3-37.4-8.5-47.6-27.4c-1.3-2.5-2.7-3.5-5.7-3.5
	c-16.2,0.2-32.5,0.2-48.7,0c-3.5,0-5.3,1-7.1,4c-8.1,13.5-19.8,22.4-35.3,25.9c-28.6,6.4-59.3-13.7-64.9-42.4
	c-4.4-22.7,6-45.3,26.5-57.4c19.2-11.3,43.7-9.2,61.2,5.3c5.7,4.7,11,11.9,13.3,18.3c-9.1,0-18.1,0-27-0.1c-0.9,0-1.8-0.9-2.7-1.5
	c-9.8-6.8-20.4-8.1-31.2-3.1c-11.6,5.4-17.5,15.1-18,27.7c-0.5,14.3,10.6,27.6,24.7,30.4c14.8,2.9,29.7-5.1,34.8-19
	c1-2.7,2.3-3.5,5-3.5c29.2,0.1,58.4,0.1,87.6,0c2.6,0,3.8,0.6,4.8,3.3c4.7,13.2,18.7,21.5,32.7,19.6c14.8-2,25.6-13.6,26.8-28.9
	c1.1-13.3-8.2-26.9-21.3-30.9c-10-3.1-19.3-1.5-27.9,4.5c-0.9,0.6-2,1.4-3.1,1.4c-9.1,0.1-18.3,0.1-28.3,0.1
	c6.8-13.6,16.7-22.7,30.2-27.6c33.3-12.1,69.1,11.9,72,47.3C325.8,298.6,301.6,324.4,272.1,324.9z"/>
</svg>
