<?xml version="1.0" encoding="utf-8"?>
<!-- Generator: Adobe Illustrator 21.0.2, SVG Export Plug-In . SVG Version: 6.00 Build 0)  -->
<svg version="1.1" id="Layer_1" xmlns="http://www.w3.org/2000/svg" xmlns:xlink="http://www.w3.org/1999/xlink" x="0px" y="0px"
	 viewBox="0 0 432 352.2" style="enable-background:new 0 0 432 352.2;" xml:space="preserve">
<style type="text/css">
	.st0{fill:#FFFFFF;}
</style>
<path class="st0" d="M420.8,256.8c-1.5-0.5-3.1-0.8-4.8-1.2c0-2.7,0-5.2,0-7.7c0-29.5-0.1-59,0.1-88.5c0.2-15.9-4.6-29-16.6-40.1
	c-14.7-13.6-28.1-28.5-42.7-42.1c-5.2-4.8-11.9-8.5-18.6-11.1c-5.1-2-11.1-1.9-16.7-2C310.6,63.8,299.4,64,288,64
	c0-15.6,0-30.5,0-45.5C288,6.3,281.8,0,269.6,0c-83.7,0-167.3,0-251,0C6.1,0,0,6.2,0,18.8c0,83.3,0,166.6,0,250
	c0,13.5,5,18.7,18.5,19.2c4.4,0.2,8.9,0,13.3,0c0.8,38.7,32.5,63.2,62.1,64.2c32.3,1.1,65.9-25,66.5-63.9c31.7,0,63.5,0,95.2,0
	c1,39,33.2,63,61,63.7c15.4,0.4,29.4-3.2,41.6-12.7c16.6-12.9,25.5-29.9,25.8-51.3c3.6,0,6.8,0.1,9.9,0c8.3-0.2,16.7,0.1,24.9-0.8
	c7.9-0.8,12.4-6.1,13-13.5C432.5,266,428.1,259.1,420.8,256.8z M96,320c-17.5,0-32.1-14.7-32-32.2c0.1-17.3,14.6-31.7,31.9-31.7
	c17.4,0,31.9,14.4,32,31.7C128.1,305.2,113.5,320,96,320z M234.4,175.8c0,6.6-5.4,12-12,12h-159c-6.6,0-12-5.4-12-12V57.2
	c0-6.6,5.4-12,12-12h159c6.6,0,12,5.4,12,12V175.8z M320.2,320c-17.5,0.1-32.2-14.6-32.2-32.1c0-17.3,14.5-31.8,31.8-31.9
	c17.6-0.1,32.2,14.4,32.2,32C352,305.3,337.5,319.9,320.2,320z M383.9,159.6c-31.7,0-63.4,0-95.7,0c0-21,0-42,0-63.6
	c1.9,0,3.9,0,5.8,0c10.5,0,21-0.3,31.4,0.2c3,0.1,6.7,1.4,8.8,3.5c15.6,15.2,30.8,30.8,46.4,46.1C384.7,149.8,384,154.4,383.9,159.6
	z"/>
</svg>
