<?xml version="1.0" encoding="utf-8"?>
<!-- Generator: Adobe Illustrator 21.0.2, SVG Export Plug-In . SVG Version: 6.00 Build 0)  -->
<svg version="1.1" id="Layer_1" xmlns="http://www.w3.org/2000/svg" xmlns:xlink="http://www.w3.org/1999/xlink" x="0px" y="0px"
	 viewBox="0 0 700 700" style="enable-background:new 0 0 700 700;" xml:space="preserve">
<style type="text/css">
	.st0{fill:#FFFFFF;}
</style>
<path class="st0" d="M423.3,113.4V66.3c0-12.1,9.8-21.9,21.9-21.9c12.1,0,21.9,9.8,21.9,21.9v47.1c0,12.1-9.8,21.9-21.9,21.9
	C433.2,135.3,423.3,125.5,423.3,113.4z M592,414.1c-8.6-8.5-22.4-8.5-31,0c-8.6,8.5-8.6,22.4,0,30.9l33.4,33.3
	c8.6,8.5,22.5,8.5,31,0c8.5-8.5,8.5-22.4,0-30.9L592,414.1z M592,183.1l33.4-33.3c8.6-8.5,8.6-22.4,0-30.9c-8.5-8.5-22.4-8.5-31,0
	L561,152.2c-8.6,8.5-8.6,22.4,0,30.9C569.6,191.7,583.5,191.7,592,183.1z M678.1,276.8h-47.2c-12.1,0-21.9,9.8-21.9,21.9
	c0,12.1,9.8,21.9,21.9,21.9h47.2c12.1,0,21.9-9.8,21.9-21.9C700,286.5,690.2,276.8,678.1,276.8z M436.2,366.8l1.8,0
	c29,0,55.8,9.9,77.2,26.3c4.7-3.4,9.2-7.1,13.5-11.4c46-45.9,46-120.4,0-166.4c-46.1-46-120.8-45.9-166.8,0
	c-14.5,14.5-24.4,31.8-29.8,50.1C378.2,284.6,415.8,320.7,436.2,366.8z M298.5,183.1c8.6,8.6,22.5,8.6,31,0c8.6-8.5,8.6-22.4,0-30.9
	l-33.4-33.3c-8.6-8.6-22.4-8.6-31,0c-8.6,8.5-8.6,22.4,0,30.9L298.5,183.1z M257.1,294.2c-83.9,0-152.1,67.9-152.1,151.6
	c-57.9,0-105,47-105,104.9c0,55.1,42.7,100.2,96.6,104.5c2.8,0.3,5.5,0.4,8.4,0.4c0,0,34.4,0,83.7,0h339.8l1.8-0.1
	c38.4-1,69.1-32.2,69.1-70.6c0-39-31.7-70.6-70.9-70.6c-3.6,0-7.2,0.2-10.7,0.8c2-7,3-14.3,3-21.9c0-45.7-37.1-82.6-82.8-82.6
	c-11.3,0-22.1,2.1-31.8,6.3C392.7,346.9,331.1,294.2,257.1,294.2"/>
</svg>
