<?xml version="1.0" encoding="utf-8"?>
<!-- Generator: Adobe Illustrator 21.0.2, SVG Export Plug-In . SVG Version: 6.00 Build 0)  -->
<svg version="1.1" id="Telia_Pebble_Icon_segments_Landscape_Backgrounds_RGB_x50"
	 xmlns="http://www.w3.org/2000/svg" xmlns:xlink="http://www.w3.org/1999/xlink" x="0px" y="0px" viewBox="0 0 356.4 200.5"
	 style="enable-background:new 0 0 356.4 200.5;" xml:space="preserve">
<style type="text/css">
	.st0{clip-path:url(#SVGID_2_);}
	.st1{fill:#FF9B00;}
	.st2{fill:#00CDCD;}
	.st3{fill:#990AE3;}
	.st4{fill:#9933FF;}
	.st5{fill:#FF3264;}
	.st6{fill:#E12364;}
</style>
<g id="_x31_0">
	<defs>
		<rect id="SVGID_1_" width="356.4" height="200.5"/>
	</defs>
	<clipPath id="SVGID_2_">
		<use xlink:href="#SVGID_1_"  style="overflow:visible;"/>
	</clipPath>
	<g id="_x31_0_1_" class="st0">
		<path class="st1" d="M298.2,335.8c-0.1-0.1-0.1-0.3-0.2-0.4c-0.2-0.2-0.5-0.4-0.9-0.4c-0.3,0-0.6,0.1-0.9,0.4
			c-19.2,18.8-52,45.6-98.9,66.1c-28.3,12.4-53.5,18.7-74.8,18.7c-3.6,0-7.1-0.2-10.4-0.6c0,0-0.1,0-0.1,0c-0.6,0-1.1,0.4-1.2,1
			c0,0.2,0.1,0.3,0.1,0.4c11.5,3.4,22.8,5.3,33.7,5.3C191.5,426.2,248.5,393.1,298.2,335.8"/>
		<path class="st1" d="M291.4,343.5c14.1-15.4,27.6-32.7,40.3-51.7c-0.1-0.1-0.1-0.3-0.2-0.4c-0.2-0.2-0.5,0.3-0.7,0.3
			c-0.4,0-1.5,1.4-1.8,1.7c-29.4,37.6-88.5,87.8-160.6,110.1c-21.2,6.5-40.3,9.9-56.8,9.9c-8.4,0-16-0.9-22.7-2.6
			c-0.1,0-0.2,0-0.3,0c-0.5,0-1,0.3-1.2,0.8c-0.1,0.1,0,0.3,0,0.4c9.5,4.4,19,7.9,28.4,10.3c2.3,0.2,4.6,0.4,6.9,0.4
			c21.7,0,47.2-6.4,75.8-18.9C240.7,385.3,271.5,361.9,291.4,343.5"/>
		<path class="st1" d="M343.4,272.3c-0.2-0.1-0.5-0.2-0.7-0.2c-0.4,0-0.8,0.2-1,0.5C283.2,352.8,172.1,406.7,105,406.7
			c-14.5,0-27-2.4-37.2-7c-0.2-0.1-0.4-0.1-0.5-0.1c-0.5,0-0.9,0.2-1.1,0.7c-0.1,0.2,0,0.3,0,0.5c8.3,5,16.7,9.3,24.9,12.9
			c6.3,1.3,13,2.1,20.4,2.1c16.8,0,36.1-3.4,57.6-10c67.9-21,125-67.9,156.4-105c6.3-9,12.4-18.4,18.3-28.2
			C343.6,272.6,343.6,272.4,343.4,272.3"/>
		<path class="st1" d="M367.4,227.1c-10,17.8-22.6,35.8-38.9,53.8c-58,64.1-163,116.3-233.9,116.3c-20.9,0-37.4-3.4-49.8-12
			c-0.2-0.2-1.1-0.7-1.4-0.7c-0.4,0-0.4-0.4-0.7,0c-0.1,0.2-0.1,0.3-0.1,0.5c9.5,7.1,19.2,13.3,28.8,18.8c9.6,3.6,20.8,5.5,33.6,5.5
			c66.2,0,174.5-51.9,234.4-129.6c10.3-16.5,20-34.2,28.7-53L367.4,227.1z"/>
		<path class="st1" d="M373.9,212.7c-0.2-0.1-0.4-0.1-0.6-0.1c-0.4,0-0.9,0.2-1.1,0.6c-11.4,20.3-24.2,38.2-39.2,54.7
			c-60.4,66.8-171.2,121.1-247,121.1c-21.9,0-39.7-4.5-52.9-13.4c-0.2-0.1-0.5-0.2-0.7-0.2c-0.4,0-0.8,0.2-1,0.5
			c-0.1,0.1-0.1,0.3-0.1,0.5c6,4.8,12,9.3,18,13.5c12.1,6.5,27.1,9.9,45.2,9.9c72.8,0,176.3-51.4,235.8-117.1
			c14.1-15.5,24.5-31.7,33.6-47.4c3.5-7.3,7-14.7,10.2-22.2C374.1,212.9,374.1,212.8,373.9,212.7"/>
		<path class="st2" d="M383.7,188.5c-0.2-0.1-0.4-0.1-0.5-0.1c-0.5,0-0.9,0.2-1.1,0.7c-10.1,18.9-27.8,46.8-54.1,72.8
			C271,317.9,159.5,378.5,78.6,378.5c-25.9,0-47.5-6.1-63.4-18.1c-0.2-0.2-0.5-0.3-0.8-0.3c-0.4,0-0.7,0.2-1,0.5
			c-0.1,0.1,0,0.2,0,0.2c7.4,6.8,14.9,13.1,22.5,19c13.1,7.6,29.8,11.6,50.2,11.6c76.4,0,188.1-54.7,248.9-121.9
			c13.6-15.1,25.4-31.4,36.1-49.5c4.6-10.1,8.9-20.6,12.9-31.3C383.9,188.7,383.8,188.6,383.7,188.5"/>
		<path class="st2" d="M389.7,171.6c-0.2-0.1-0.3-0.1-0.5-0.1c-0.5,0-0.9,0.2-1.1,0.7c-17.7,33-38.8,60.3-64.6,83.4
			c-73.5,66-180.3,113.8-253.9,113.8c-25.7,0-46.7-5.6-62.4-16.7c-0.2-0.2-0.5-0.2-0.7-0.2c-0.4,0-0.7,0.1-1,0.5
			c-0.1,0.1-0.1,0.2-0.1,0.4c4.5,4.3,9,8.5,13.5,12.5C34.7,375.9,54.7,381,78.6,381c81.6,0,193.9-60.9,251.2-117.4
			c24.3-24,41.2-49.5,51.7-68.3c3-7.7,5.8-15.5,8.5-23.5C389.8,171.8,389.8,171.6,389.7,171.6"/>
		<path class="st2" d="M398.5,142.1c-0.1,0-0.3-0.1-0.4-0.1c-0.5,0-1,0.3-1.2,0.8c-15.3,36.4-45.2,75.3-80.1,104.1
			c-78.4,64.7-183.3,110-255,110c-31.9,0-57.5-7.8-75.2-24.3c-0.2-0.2-0.6-0.3-0.9-0.3c-0.2,0-0.4,0.1-0.7,0.3
			C-7.1,341,0.9,349.1,9,356.8c15.7,10,35.2,15.1,60.5,15.1c74.2,0,181.7-48.1,255.6-114.5c25-22.4,45.6-48.9,63.1-80.6
			c3.9-11.2,7.4-22.7,10.6-34.4C398.7,142.3,398.7,142.2,398.5,142.1"/>
		<path class="st2" d="M402.1,128.7c-0.1-0.1-0.3-0.1-0.4-0.1c-0.5,0-0.9,0.3-1.2,0.7c-15.8,33.5-37.6,70.1-89.9,110.5
			C226.3,304.9,125.9,347,54.7,347c-31,0-56.1-7.7-74.7-22.7c-0.2-0.2-0.5-0.3-0.8-0.3c-0.3,0-0.7,0.1-0.9,0.4
			c-0.1,0.1-0.1,0.3-0.2,0.4c3.8,4.3,7.7,8.6,11.6,12.8c17.9,14.4,42,21.8,72.1,21.8c72.3,0,177.8-45.5,256.6-110.5
			c33.9-27.9,63-65.4,78.8-100.9c1.8-6.3,3.5-12.6,5-19C402.3,128.9,402.2,128.7,402.1,128.7"/>
		<path class="st2" d="M408.1,100.7c-0.1,0-0.2,0-0.3,0c-0.5,0-1,0.3-1.2,0.8c-18.4,48.8-52.4,90.7-103.9,128.1
			c-88.2,64.2-187.1,104-258.1,104c-32.3,0-58.2-8.1-77-24.1c-0.2-0.2-0.5-0.3-0.8-0.3c-0.3,0-0.6,0.1-0.9,0.4
			c-0.1,0.1-0.1,0.2-0.2,0.4c5.1,6.3,10.3,12.4,15.6,18.4c18.8,14.1,43.4,21.3,73.4,21.3c71.7,0,172.7-42.3,257.4-107.8
			c50.8-39.3,73.1-75.1,88.9-108c2.8-10.7,5.2-21.7,7.3-32.9C408.3,100.9,408.2,100.7,408.1,100.7"/>
		<path class="st2" d="M410.4,87.7c-0.1,0-0.2-0.1-0.3-0.1c-0.5,0-1,0.3-1.2,0.8c-19.1,48.3-57.1,92.6-113,131.8
			c-70,49.1-174.9,101.5-259.3,101.5c-32.9,0-59.4-8.2-78.6-24.4c-0.2-0.2-0.5-0.3-0.8-0.3c-0.3,0-0.6,0.1-0.9,0.4
			c-0.1,0.1-0.1,0.2-0.2,0.4c4,5.3,8.1,10.5,12.3,15.5c19.2,15.2,44.7,22.9,76.2,22.9c71.5,0,171-40.1,259.6-104.5
			c50.7-36.9,84.5-78.2,103.4-126.1c1.2-5.8,2.2-11.7,3.2-17.6C410.7,87.9,410.6,87.8,410.4,87.7"/>
		<path class="st2" d="M413.7,65.1c-0.1,0-0.2,0-0.3,0c-0.5,0-1,0.3-1.2,0.8c-20.5,54.6-62.9,103.2-126,144.5
			c-94.7,62-188.6,97.5-257.5,97.5c-35.2,0-63.1-9.2-83-27.2c-0.2-0.2-0.5-0.3-0.9-0.3c-0.3,0-0.6,0.1-0.8,0.3
			c-0.1,0.1-0.1,0.2-0.2,0.3c4.7,6.7,9.5,13.3,14.6,19.8c19.7,15.6,45.9,23.5,78.2,23.5c85,0,190.4-52.6,260.8-101.9
			c55.2-38.7,93-82.5,112.7-130.2c1.5-8.8,2.9-17.7,4-26.8C414,65.3,413.9,65.1,413.7,65.1"/>
		<path class="st2" d="M415.4,48.9c-0.1,0-0.2,0-0.3,0c-0.5,0-1,0.3-1.2,0.9c-15,50-63.1,103.4-135.3,150.6
			c-88.7,57.9-191.2,95.3-261.2,95.3c-35,0-61.6-8.8-79.2-26.1c-0.2-0.2-0.6-0.4-0.9-0.4c-0.3,0-0.6,0.1-0.8,0.3
			c-0.1,0.1-0.1,0.2-0.2,0.3c3.2,4.8,6.4,9.6,9.8,14.3c20.4,17.4,48.1,26.3,82.7,26.3c69.4,0,163.8-35.7,258.9-97.9
			c62.6-40.9,104.8-89.1,125.9-143.2c0.9-6.6,1.6-13.4,2.2-20.1C415.7,49,415.6,48.9,415.4,48.9"/>
		<path class="st3" d="M417.7,20.4c-0.2-0.1-0.3-0.1-0.5-0.1c-0.2,0-0.4,0.1-0.6,0.2c-0.3,0.2-0.6,0.5-0.6,0.9
			c-11.5,56.2-66.8,118.7-147.8,167c-100.4,59.9-191.8,92.9-257.4,92.9c-36.2,0-64.4-9.9-83.8-29.3c-0.2-0.2-0.6-0.4-0.9-0.4
			c-0.3,0-0.6,0.1-0.8,0.3c-0.1,0.1-0.2,0.3-0.2,0.4c4.2,7.1,8.8,14.1,13.4,21c18.2,16.7,44.7,25.1,78.9,25.1
			c70.4,0,173.5-37.6,262.6-95.8c71.2-46.5,119-99.2,135.3-148.8c1.1-11,2-22,2.5-33.3C417.8,20.4,417.7,20.4,417.7,20.4"/>
		<path class="st3" d="M418.2,5.4c-0.1-0.1-0.2-0.2-0.4-0.2c0,0-0.1,0-0.1,0c-0.6,0-1.1,0.4-1.2,1C405.1,64,349.7,124.9,260.2,177.9
			c-96.6,57.2-191.1,90-259.2,90c-34.7,0-61.3-8.3-79.2-24.6c-0.2-0.2-0.5-0.3-0.9-0.3c-0.3,0-0.6,0.1-0.8,0.3
			c-0.1,0.1-0.1,0.2-0.2,0.3c2.2,3.9,4.5,7.8,6.9,11.7c19.9,19,48,28.6,83.8,28.6c66,0,157.9-33.1,258.7-93.3
			c79.9-47.7,134.8-109,148-165C417.8,18.9,418.1,12.1,418.2,5.4"/>
		<path class="st3" d="M417.6-20.7c-0.1-0.1-0.3-0.2-0.4-0.2h0c-0.7,0-1.2,0.5-1.3,1.2c-3.9,57.7-67.6,128.5-166.3,184.5
			c-99.3,56.5-190.7,87.5-257.2,87.5c-36.5,0-63.6-9.4-80.5-27.8c-0.3-0.3-0.6-0.4-0.9-0.4c-0.2,0-0.5,0.1-0.7,0.2
			c-0.1,0.1-0.2,0.2-0.2,0.3c3.7,7.2,7.6,14.5,11.8,21.7c18.3,15.9,44.9,24,79.3,24c68.5,0,163.5-32.9,260.5-90.4
			c88.3-52.3,143.6-112.5,156.5-169.9c0.1-4.7,0.3-9.3,0.3-14C418.4-9.7,418-15.3,417.6-20.7"/>
		<path class="st3" d="M417.8-15.3c-0.5-8-1.3-15.7-2.7-22.8c-0.1-0.1-0.3-0.1-0.4-0.1h-0.1c-0.7,0.1-1.2,0.6-1.2,1.2
			c-1.1,58.5-63,126-174.3,189.9c-95,54.6-187.7,85.9-254.2,85.9c-36.7,0-63.6-9.5-79.9-28.1c-0.2-0.3-0.6-0.4-1-0.4
			c-0.2,0-0.5,0.1-0.7,0.2c-0.1,0.1-0.1,0.2-0.2,0.3c2.6,5.7,5.4,11.3,8.3,17c17.5,18,44.6,27.2,80.8,27.2
			c67,0,158.8-31.2,258.5-87.9C347.9,111.9,411.2,42.5,417.8-15.3"/>
		<path class="st4" d="M415.7-34c-1.8-10.3-4.5-19.7-8-28.3h0c-0.1,0-0.2,0-0.4,0c-0.6,0.2-1,0.8-0.9,1.5
			c10.8,58-59.6,136.6-179.3,200.5c-99.2,52.8-188.7,81.9-252.2,81.9c-38.1,0-64.6-10.4-78.5-31c-0.2-0.4-0.6-0.5-1-0.5
			c-0.2,0-0.4,0-0.6,0.1c-0.1,0.1-0.2,0.2-0.3,0.3c2.9,7.7,6.2,15.4,9.9,23.2c16.9,18.3,43.9,27.6,80.4,27.6
			c66.9,0,160-31.4,255.4-86.2C350.6,91.7,412.7,24.7,415.7-34"/>
		<path class="st3" d="M409.3-58.5c-2.3-6.3-5.1-12.1-8.2-17.6c-0.1,0-0.1-0.1-0.1-0.1c-0.1,0-0.3,0-0.4,0.1c-0.6,0.2-1,0.8-0.9,1.4
			c10,57.8-58.1,132.3-182.3,199.4c-95.6,51.7-187.1,81.3-250.8,81.3c-34.6,0-59.4-8.6-73.8-25.4c-0.2-0.3-0.6-0.4-1-0.4
			c-0.2,0-0.4,0.1-0.6,0.2c-0.1,0-0.1,0.1-0.2,0.2c1.5,4.4,3.1,8.8,4.9,13.2c14.9,20.2,41.4,30.4,79.2,30.4
			c63.9,0,153.8-29.2,253.4-82.2C347.3,78.5,417.6,0.3,409.3-58.5"/>
		<path class="st3" d="M402.3-73.9c-3-5.5-6.3-10.7-10-15.5c-0.1,0-0.3,0-0.4,0.1c-0.5,0.3-0.8,1-0.5,1.6
			c20.1,48-61.8,136.1-186.5,200.7C111.7,161.2,23,188.9-38.7,188.9c-40.2,0-66.4-11.7-75.9-33.9c-0.2-0.5-0.7-0.8-1.2-0.8
			c-0.1,0-0.3,0-0.4,0.1c-0.2,0.1-0.2,0.2-0.4,0.3c2.1,9.4,5,19,8.5,28.8c15.1,16.6,40.1,25.1,74.6,25.1c64.2,0,156-29.7,252-81.6
			C342.9,59.7,411.3-15.2,402.3-73.9"/>
		<path class="st3" d="M394.5-86.4c-3.4-4.7-7.1-9.1-11.1-13.1c-0.1,0-0.3,0-0.4,0.1c-0.5,0.4-0.7,1-0.4,1.6
			c23.3,45.5-56,128.1-188.7,196.3C101.9,145.9,14.6,173-45.6,173c-36.1,0-60.6-10.2-70.8-29.4c-0.3-0.5-0.5-1.1-0.8-1.6
			c-0.2-0.5-0.7-0.8-1.2-0.8c-0.1,0-0.2,0-0.3,0c-0.1,0-0.2,0.2-0.4,0.3c0.9,5.5,2.1,11.1,3.5,16.8c10.8,21.7,37.2,33.1,76.9,33.1
			c62.1,0,151.3-27.7,244.7-76.1C329.9,51.1,411.7-36.8,394.5-86.4"/>
		<path class="st3" d="M385.7-97c-4.7-5-9.7-9.6-15.2-13.7c-0.2,0.1-0.3,0.1-0.4,0.2c-0.5,0.4-0.6,1-0.3,1.6
			c4.9,9.2,5.5,20.2,1.6,32.7C357.4-31.5,290.5,26.3,196.5,74.8c-95.9,49.4-189,79-249.2,79c-32.3,0-53.1-8.3-61.9-24.7
			c-2.4-4.4-4-9.5-4.8-15.2c-0.1-0.6-0.6-1.1-1.3-1.1h-0.1c-0.1,0-0.2,0.1-0.4,0.2c0,1.5-0.2,3-0.2,4.4c0,8.8,1,18.1,2.7,27.7
			c10.8,20,35.9,30.5,72.9,30.5c60.6,0,148.3-27.2,240.7-74.7C327.3,32.8,406.7-49.9,385.7-97"/>
		<path class="st3" d="M373.7-75.5c4-12.8,3.4-24.1-1.4-33.7c-4.9-3.8-10.1-7.1-15.6-10.2c-0.1,0.1-0.2,0-0.3,0.1
			c-0.4,0.4-0.4,1.1-0.1,1.6c0.4,0.6,0.8,1.2,1.2,1.7c4.7,7.9,5.4,17.4,2.1,28.4c-13.5,44.7-92,109-190.9,156.4
			C80.6,111-3.9,136.2-57.2,136.2c-30.8,0-50.4-8.1-58.1-24.1c-1.9-3.9-2.8-9-2.7-15c0-0.7-0.5-1.2-1.2-1.3h-0.1
			c-0.1,0-0.2,0.1-0.3,0.1c-1,6.9-1.7,13.9-1.7,21c1,4.9,2.3,9.4,4.4,13.3c9.2,17.3,30.7,26.1,64.1,26.1
			c60.6,0,154.1-29.6,250.4-79.2C292.2,28.3,359.7-30.2,373.7-75.5"/>
		<path class="st3" d="M362-86.8c3.5-11.7,2.7-22-2.4-30.5c-0.2-0.3-0.4-0.7-0.7-1c-9.1-5.3-19-9.4-29.4-12.8
			c-0.1,0.1-0.4,0.1-0.4,0.3c-0.2,0.6,0,1.3,0.6,1.6c4.8,2.3,8,4.8,9.6,7.2c4.1,6.3,4.8,14.1,2.2,23.2
			c-12,42-93.2,106.4-193.2,153.3c-82.8,38.8-158,61.1-206.3,61.1c-28.7,0-47.2-7.8-53.6-22.6c-2.2-5.1-2.5-12-0.9-20.5
			c0.4-1.4,0.9-2.9,1.4-4.3c0.2-0.7-0.1-1.4-0.8-1.6c-0.1,0-0.3-0.1-0.4-0.1c-0.1,0-0.1,0.1-0.2,0.1c-3.8,11.1-6.4,22.4-7.7,34
			c0.3,4.8,1,9,2.6,12.4c8.2,16.9,28.5,25.5,60.3,25.5c53.7,0,138.6-25.3,227-67.6C269.3,23.5,348.3-41.4,362-86.8"/>
		<path class="st5" d="M344-97.9c2.8-9.9,2-18.4-2.5-25.3c-1.4-2.2-3.9-4.3-7.4-6.4c-8.9-3.1-18.2-5.5-27.8-7.3
			c-0.2,0.2-0.5,0.2-0.5,0.4c-0.2,0.6,0.2,1.3,0.8,1.5c6.8,2.4,11.3,5.3,13.3,8.8c3.2,5.3,3.6,12,1.2,19.8
			c-11.5,38.5-84,96.3-176.1,140.6C64.1,73.3-9.4,95.6-56.7,95.6c-25.8,0-42.8-6.9-49.1-19.8c-2.7-5.6-2.8-12.5-0.3-20.5
			c0.2-0.6-0.1-1.3-0.8-1.6c-0.1-0.1-0.3-0.1-0.4-0.1c0,0,0,0-0.1,0c-3.3,7.6-6.1,15.3-8.3,23.1c-0.8,6.9-0.3,12.8,1.7,17.4
			c6.9,15.8,26.2,24.1,55.9,24.1c49.4,0,123-21.8,207.3-61.3C251.6,9,331.7-54.7,344-97.9"/>
		<path class="st5" d="M323.6-105.5c2.6-8.6,2.1-15.9-1.5-21.9c-2-3.3-5.7-6.1-11-8.4c-14.9-3.1-30.6-4.6-46.6-4.8
			c-0.1,0.2-0.2,0.3-0.2,0.4c0,0.7,0.4,1.3,1.1,1.3c15.2,1.8,24.9,5.7,28.2,11.4c2.6,4.5,2.9,10.2,0.8,16.8
			c-10.7,34.2-80,87.1-168.3,128.6C52,52.8-11.5,72-52.7,72c-22.8,0-37.1-5.8-42.7-17.4c-2.8-5.9-2.7-12.9,0.6-21
			c0.2-0.6,0-1.3-0.6-1.6c-0.2-0.1-0.4-0.1-0.6-0.1c-5.4,8.9-9.9,18.1-13.7,27.4c-1.3,6.7-0.8,12.6,1.6,17.5
			c6.9,14.1,24.2,21.2,51.4,21.2c47.6,0,121.6-22.4,202.8-61.5C238.9-8,311.8-66.5,323.6-105.5"/>
		<path class="st6" d="M296.8-109.9c2.3-7.3,1.9-13.6-1.1-18.8c-3.2-5.6-11.2-9.5-23.8-11.7c-3.3-0.1-6.7-0.3-10-0.3
			c-15.3,0-30.9,0.9-46.7,2.7c-0.1,0.2-0.2,0.3-0.1,0.5c0.1,0.7,0.6,1.2,1.3,1.2h0c2.9-0.1,5.8-0.2,8.5-0.2
			c20.6,0,33.9,3.5,37.4,9.9c2.1,3.9,2.2,8.6,0.5,14c-9.4,28.7-72,75.4-152.4,113.4C47,30.8-10.5,48-47.3,48c-19.3,0-31.7-4.8-36-14
			c-2.9-6.2-1.4-14.3,4.5-23.9c0.3-0.6,0.2-1.3-0.4-1.7c-0.1-0.1-0.3-0.1-0.4-0.1c-6.9,8.7-13.1,17.8-18.4,27
			c-2.5,7.8-2.5,14.6,0.3,20.5c6,12.5,21.1,18.8,44.9,18.8c41.6,0,105.4-19.3,179.8-54.3C216.1-21.6,285.9-75.1,296.8-109.9"/>
		<path class="st5" d="M226-139.1c-18,1.5-36.3,4.3-54.5,8c0,0.2-0.1,0.3-0.1,0.5c0.1,0.6,0.6,1,1.2,1c0.1,0,0.1,0,0.2,0
			c8.7-1.3,16.6-1.9,23.5-1.9c15.7,0,25.8,3.4,28.6,9.5c9.5,20.9-47.9,68.2-127.9,105.3C43.9,8-8.3,23.4-38.9,23.4
			c-14.4,0-23.6-3.4-26.6-9.8c-3.9-8.4,2.7-21.8,18.7-37.8c0.5-0.5,0.5-1.3,0-1.8c-0.1-0.1-0.3-0.1-0.5-0.2
			C-60.7-14-72.6-1-82.9,12.5c-4.5,8.8-5.6,16.4-2.7,22.6c4.7,10.1,17.9,15.4,38.3,15.4c37.2,0,95.1-17.3,158.7-47.4
			c82.2-38.9,144-85.1,153.7-114.9c2-6.1,1.8-11.5-0.7-16C259.5-136.9,241.1-139,226-139.1"/>
		<path class="st5" d="M227.3-123c-3.3-7.2-14-11-30.9-11c-4.1,0-8.7,0.3-13.5,0.7c-25.2,4.5-50.3,11.1-74.8,19.4
			c0,0.2-0.1,0.3,0,0.5c0.2,0.5,0.7,0.9,1.2,0.9c0.1,0,0.2,0,0.4,0c20.3-6.2,37.9-9.4,50.9-9.4c11.6,0,19,2.6,21.3,7.5
			c7.3,15.8-36.9,52.1-98.7,80.7C42-14.6,1.5-2.8-22.6-2.8c-11.1,0-18.2-2.5-20.4-7.3c-3.8-8.2,6.2-22.5,27.3-39.2
			c0.5-0.4,0.6-1.2,0.2-1.8c-0.1-0.1-0.3-0.1-0.4-0.2C-30.2-41-43.6-30-55.6-18.3c-11.7,13.6-15.9,24.9-12.2,33
			c3.5,7.5,13.2,11.2,28.9,11.2c31.5,0,82.7-15.1,137.1-40.3C182.2-53.3,237.7-100.1,227.3-123"/>
		<path class="st5" d="M184-115.5c-2.8-6-10.7-9-23.6-9c-9.4,0-21.1,1.7-34.3,4.8c-56.5,17-110.4,43.5-153.4,76.9
			C-42.5-28.8-49-16.9-45.3-9c2.7,5.8,10.3,8.8,22.7,8.8c24.4,0,65.3-11.9,106.7-31.2C149.3-61.7,192.2-97.8,184-115.5 M68.3-51.5
			C40.8-38.9,14.3-31-0.8-31c-6.2,0-10.2-1.3-11.3-3.9c-3.9-8.5,21-30.9,64.3-50.8c26.6-12.2,52.8-19.8,68.3-19.8
			c6.7,0,10.9,1.4,12.2,4.1C136.4-93.4,112.8-72,68.3-51.5"/>
		<path class="st5" d="M135-102.5c-1.7-3.7-6.6-5.6-14.5-5.6c-15.9,0-42.5,7.7-69.4,20C14.4-71.2-20.2-46.3-14.5-33.9
			c1.6,3.6,6.2,5.4,13.6,5.4c15.4,0,42.3-7.9,70.2-20.8C106.3-66.2,140.7-89.9,135-102.5 M99.5-91c-1.3,4.7-14.4,15-36.9,25.5
			c-17.5,8.3-34.4,13.6-42.9,13.6c-2.4,0-4.1-0.4-4.6-1.2c-0.1-0.1-0.3-0.5-0.1-1.4c1.3-4.8,14.7-15.6,36.8-26
			c17-8,33.7-13.2,42.6-13.2c2.6,0,4.4,0.5,4.9,1.3C99.5-92.2,99.7-91.9,99.5-91"/>
		<path class="st5" d="M101.5-93.8c-1.1-1.6-3.4-2.4-7-2.4c-9.2,0-26.4,5.3-43.7,13.4C30.1-73,14.4-61.7,12.6-55.2
			c-0.5,1.7,0,2.8,0.4,3.5c1.1,1.6,3.2,2.3,6.7,2.3c8.9,0,26.2-5.4,44-13.8c17.6-8.3,36.2-19.9,38.2-27.2
			C102.4-92,101.9-93.1,101.5-93.8"/>
	</g>
</g>
</svg>
