<?xml version="1.0" encoding="utf-8"?>
<!-- Generator: Adobe Illustrator 21.0.2, SVG Export Plug-In . SVG Version: 6.00 Build 0)  -->
<svg version="1.1" id="Telia_Pebble_Icon_segments_Landscape_Backgrounds_RGB_x50"
	 xmlns="http://www.w3.org/2000/svg" xmlns:xlink="http://www.w3.org/1999/xlink" x="0px" y="0px" viewBox="0 0 356.4 200.8"
	 style="enable-background:new 0 0 356.4 200.8;" xml:space="preserve">
<style type="text/css">
	.st0{clip-path:url(#SVGID_2_);}
	.st1{fill:#9933FF;}
	.st2{fill:#00CDCD;}
	.st3{fill:#00FFCD;}
	.st4{fill:#009999;}
</style>
<g id="_x35__1_">
	<g>
		<defs>
			<rect id="SVGID_1_" y="0.3" width="356.4" height="200.5"/>
		</defs>
		<clipPath id="SVGID_2_">
			<use xlink:href="#SVGID_1_"  style="overflow:visible;"/>
		</clipPath>
		<g id="_x35__3_" class="st0">
			<path class="st1" d="M298.2,336.1c-0.1-0.1-0.1-0.3-0.2-0.4c-0.2-0.2-0.5-0.4-0.9-0.4c-0.3,0-0.6,0.1-0.9,0.4
				c-19.2,18.8-52,45.6-98.9,66.1c-28.3,12.4-53.5,18.7-74.8,18.7c-3.6,0-7.1-0.2-10.4-0.6H112c-0.6,0-1.1,0.4-1.2,1
				c0,0.2,0.1,0.3,0.1,0.4c11.5,3.4,22.8,5.3,33.7,5.3C191.5,426.5,248.5,393.4,298.2,336.1"/>
			<path class="st1" d="M291.4,343.8c14.1-15.4,27.6-32.7,40.3-51.7c-0.1-0.1-0.1-0.3-0.2-0.4c-0.2-0.2-0.5,0.3-0.7,0.3
				c-0.4,0-1.5,1.4-1.8,1.7c-29.4,37.6-88.5,87.8-160.6,110.1c-21.2,6.5-40.3,9.9-56.8,9.9c-8.4,0-16-0.9-22.7-2.6
				c-0.1,0-0.2,0-0.3,0c-0.5,0-1,0.3-1.2,0.8c-0.1,0.1,0,0.3,0,0.4c9.5,4.4,19,7.9,28.4,10.3c2.3,0.2,4.6,0.4,6.9,0.4
				c21.7,0,47.2-6.4,75.8-18.9C240.7,385.6,271.5,362.2,291.4,343.8"/>
			<path class="st1" d="M343.4,272.6c-0.2-0.1-0.5-0.2-0.7-0.2c-0.4,0-0.8,0.2-1,0.5C283.2,353.1,172.1,407,105,407
				c-14.5,0-27-2.4-37.2-7c-0.2-0.1-0.4-0.1-0.5-0.1c-0.5,0-0.9,0.2-1.1,0.7c-0.1,0.2,0,0.3,0,0.5c8.3,5,16.7,9.3,24.9,12.9
				c6.3,1.3,13,2.1,20.4,2.1c16.8,0,36.1-3.4,57.6-10c67.9-21,125-67.9,156.4-105c6.3-9,12.4-18.4,18.3-28.2
				C343.6,272.9,343.6,272.7,343.4,272.6"/>
			<path class="st1" d="M367.4,227.4c-10,17.8-22.6,35.8-38.9,53.8c-58,64.1-163,116.3-233.9,116.3c-20.9,0-37.4-3.4-49.8-12
				c-0.2-0.2-1.1-0.7-1.4-0.7c-0.4,0-0.4-0.4-0.7,0c-0.1,0.2-0.1,0.3-0.1,0.5c9.5,7.1,19.2,13.3,28.8,18.8
				c9.6,3.6,20.8,5.5,33.6,5.5c66.2,0,174.5-51.9,234.4-129.6c10.3-16.5,20-34.2,28.7-53L367.4,227.4z"/>
			<path class="st1" d="M373.9,213c-0.2-0.1-0.4-0.1-0.6-0.1c-0.4,0-0.9,0.2-1.1,0.6c-11.4,20.3-24.2,38.2-39.2,54.7
				C272.6,335,161.8,389.3,86,389.3c-21.9,0-39.7-4.5-52.9-13.4c-0.2-0.1-0.5-0.2-0.7-0.2c-0.4,0-0.8,0.2-1,0.5
				c-0.1,0.1-0.1,0.3-0.1,0.5c6,4.8,12,9.3,18,13.5c12.1,6.5,27.1,9.9,45.2,9.9c72.8,0,176.3-51.4,235.8-117.1
				c14.1-15.5,24.5-31.7,33.6-47.4c3.5-7.3,7-14.7,10.2-22.2C374.1,213.2,374.1,213.1,373.9,213"/>
			<path class="st1" d="M383.6,188.8c-0.2-0.1-0.4-0.1-0.5-0.1c-0.5,0-0.9,0.2-1.1,0.7c-10.1,18.9-27.8,46.8-54.1,72.8
				C271,318.3,159.4,378.9,78.5,378.9c-25.9,0-47.5-6.1-63.4-18.1c-0.2-0.2-0.5-0.3-0.8-0.3c-0.4,0-0.7,0.2-1,0.5
				c-0.1,0.1,0,0.2,0,0.2c7.4,6.8,14.9,13.1,22.5,19c13.1,7.6,29.8,11.6,50.2,11.6c76.4,0,188.1-54.7,248.9-121.9
				c13.6-15.1,25.4-31.4,36.1-49.5c4.6-10.1,8.9-20.6,12.9-31.3C383.9,189,383.8,188.9,383.6,188.8"/>
			<path class="st1" d="M389.6,171.9c-0.2-0.1-0.3-0.1-0.5-0.1c-0.5,0-0.9,0.2-1.1,0.7c-17.7,33-38.8,60.3-64.6,83.4
				C250,321.8,143.2,369.6,69.5,369.6c-25.7,0-46.7-5.6-62.4-16.7c-0.2-0.2-0.5-0.2-0.7-0.2c-0.4,0-0.7,0.1-1,0.5
				c-0.1,0.1-0.1,0.2-0.1,0.4c4.5,4.3,9,8.5,13.5,12.5c15.8,10.1,35.8,15.3,59.7,15.3c81.6,0,193.9-60.9,251.2-117.4
				c24.3-24,41.2-49.5,51.7-68.3c3-7.7,5.8-15.5,8.5-23.5C389.8,172.1,389.8,171.9,389.6,171.9"/>
			<path class="st1" d="M398.5,142.4c-0.1,0-0.3-0.1-0.4-0.1c-0.5,0-1,0.3-1.2,0.8c-15.3,36.4-45.2,75.3-80.1,104.1
				c-78.4,64.7-183.3,110-255,110c-31.9,0-57.5-7.8-75.2-24.3c-0.2-0.2-0.6-0.3-0.9-0.3c-0.2,0-0.4,0.1-0.7,0.3
				c7.7,8.5,15.7,16.6,23.8,24.2c15.7,10,35.2,15.1,60.5,15.1c74.2,0,181.7-48.1,255.6-114.5c25-22.4,45.6-48.9,63.1-80.6
				c3.9-11.2,7.4-22.7,10.6-34.4C398.7,142.6,398.7,142.5,398.5,142.4"/>
			<path class="st1" d="M402,129c-0.1-0.1-0.3-0.1-0.4-0.1c-0.5,0-0.9,0.3-1.2,0.7c-15.8,33.5-37.6,70.1-89.9,110.5
				c-84.3,65.2-184.8,107.3-255.9,107.3c-31,0-56.1-7.7-74.7-22.7c-0.2-0.2-0.5-0.3-0.8-0.3s-0.7,0.1-0.9,0.4
				c-0.1,0.1-0.1,0.3-0.2,0.4c3.8,4.3,7.7,8.6,11.6,12.8c17.9,14.4,42,21.8,72.1,21.8c72.3,0,177.8-45.5,256.6-110.5
				c33.9-27.9,63-65.4,78.8-100.9c1.8-6.3,3.5-12.6,5-19C402.3,129.2,402.2,129,402,129"/>
			<path class="st1" d="M408.1,101c-0.1,0-0.2,0-0.3,0c-0.5,0-1,0.3-1.2,0.8c-18.4,48.8-52.4,90.7-103.9,128.1
				c-88.2,64.2-187.1,104-258.1,104c-32.3,0-58.2-8.1-77-24.1c-0.2-0.2-0.5-0.3-0.8-0.3s-0.6,0.1-0.9,0.4c-0.1,0.1-0.1,0.2-0.2,0.4
				c5.1,6.3,10.3,12.4,15.6,18.4C0.1,342.8,24.7,350,54.7,350c71.7,0,172.7-42.3,257.4-107.8c50.8-39.3,73.1-75.1,88.9-108
				c2.8-10.7,5.2-21.7,7.3-32.9C408.3,101.2,408.2,101,408.1,101"/>
			<path class="st1" d="M410.4,88c-0.1,0-0.2-0.1-0.3-0.1c-0.5,0-1,0.3-1.2,0.8c-19.1,48.3-57.1,92.6-113,131.8
				C225.9,269.6,121,322,36.6,322c-32.9,0-59.4-8.2-78.6-24.4c-0.2-0.2-0.5-0.3-0.8-0.3s-0.6,0.1-0.9,0.4c-0.1,0.1-0.1,0.2-0.2,0.4
				c4,5.3,8.1,10.5,12.3,15.5c19.2,15.2,44.7,22.9,76.2,22.9c71.5,0,171-40.1,259.6-104.5c50.7-36.9,84.5-78.2,103.4-126.1
				c1.2-5.8,2.2-11.7,3.2-17.6C410.7,88.2,410.6,88.1,410.4,88"/>
			<path class="st1" d="M413.7,65.4c-0.1,0-0.2,0-0.3,0c-0.5,0-1,0.3-1.2,0.8c-20.5,54.6-62.9,103.2-126,144.5
				c-94.7,62-188.6,97.5-257.5,97.5c-35.2,0-63.1-9.2-83-27.2c-0.2-0.2-0.5-0.3-0.9-0.3c-0.3,0-0.6,0.1-0.8,0.3
				c-0.1,0.1-0.1,0.2-0.2,0.3c4.7,6.7,9.5,13.3,14.6,19.8c19.7,15.6,45.9,23.5,78.2,23.5c85,0,190.4-52.6,260.8-101.9
				c55.2-38.7,93-82.5,112.7-130.2c1.5-8.8,2.9-17.7,4-26.8C414,65.6,413.9,65.4,413.7,65.4"/>
			<path class="st2" d="M415.4,49.2c-0.1,0-0.2,0-0.3,0c-0.5,0-1,0.3-1.2,0.9c-15,50-63.1,103.4-135.3,150.6
				C189.9,258.6,87.4,296,17.4,296c-35,0-61.6-8.8-79.2-26.1c-0.2-0.2-0.6-0.4-0.9-0.4s-0.6,0.1-0.8,0.3c-0.1,0.1-0.1,0.2-0.2,0.3
				c3.2,4.8,6.4,9.6,9.8,14.3c20.4,17.4,48.1,26.3,82.7,26.3c69.4,0,163.8-35.7,258.9-97.9c62.6-40.9,104.8-89.1,125.9-143.2
				c0.9-6.7,1.6-13.4,2.2-20.1C415.7,49.3,415.6,49.2,415.4,49.2"/>
			<path class="st2" d="M417.6,20.7c-0.2-0.1-0.3-0.1-0.5-0.1s-0.4,0.1-0.6,0.2c-0.3,0.2-0.6,0.5-0.6,0.9
				c-11.5,56.2-66.8,118.7-147.8,167c-100.4,59.9-191.8,92.9-257.4,92.9c-36.2,0-64.4-9.9-83.8-29.3c-0.2-0.2-0.6-0.4-0.9-0.4
				c-0.3,0-0.6,0.1-0.8,0.3c-0.1,0.1-0.2,0.3-0.2,0.4c4.2,7.1,8.8,14.1,13.4,21c18.3,16.5,44.7,25,79,25
				c70.4,0,173.5-37.6,262.6-95.8c71.2-46.5,119-99.2,135.3-148.8c1.1-11,2-22,2.5-33.3C417.8,20.7,417.7,20.7,417.6,20.7"/>
			<path class="st2" d="M418.2,5.7c-0.1-0.1-0.2-0.2-0.4-0.2h-0.1c-0.6,0-1.1,0.4-1.2,1c-11.3,57.7-66.8,118.7-156.2,171.7
				c-96.6,57.2-191.1,90-259.2,90c-34.7,0-61.3-8.3-79.2-24.6c-0.2-0.2-0.5-0.3-0.9-0.3c-0.3,0-0.6,0.1-0.8,0.3
				c-0.1,0.1-0.1,0.2-0.2,0.3c2.2,3.9,4.5,7.8,6.9,11.7c19.9,19,48,28.6,83.8,28.6c66,0,157.9-33.1,258.7-93.3
				c79.9-47.7,134.8-109,148-165C417.8,19.2,418,12.4,418.2,5.7"/>
			<path class="st2" d="M417.6-20.4c-0.1-0.1-0.3-0.2-0.4-0.2l0,0c-0.7,0-1.2,0.5-1.3,1.2c-3.9,57.7-67.6,128.5-166.3,184.5
				c-99.3,56.5-190.7,87.5-257.2,87.5c-36.5,0-63.6-9.4-80.5-27.8c-0.3-0.3-0.6-0.4-0.9-0.4c-0.2,0-0.5,0.1-0.7,0.2
				c-0.1,0.1-0.2,0.2-0.2,0.3c3.7,7.2,7.6,14.5,11.8,21.7c18.3,15.9,44.9,24,79.3,24c68.5,0,163.5-32.9,260.5-90.4
				c88.1-52.1,143.4-112.3,156.4-169.7c0.1-4.7,0.3-9.3,0.3-14C418.3-9.4,418-15,417.6-20.4"/>
			<path class="st3" d="M417.8-15c-0.5-8-1.3-15.7-2.7-22.8c-0.1-0.1-0.3-0.1-0.4-0.1h-0.1c-0.7,0.1-1.2,0.6-1.2,1.2
				c-1.1,58.5-63,126-174.3,189.9c-95,54.6-187.7,85.9-254.2,85.9c-36.7,0-63.6-9.5-79.9-28.1c-0.2-0.3-0.6-0.4-1-0.4
				c-0.2,0-0.5,0.1-0.7,0.2c-0.1,0.1-0.1,0.2-0.2,0.3c2.6,5.7,5.4,11.3,8.3,17c17.5,18,44.6,27.2,80.8,27.2
				c67,0,158.8-31.2,258.5-87.9C347.9,112.2,411.2,42.8,417.8-15"/>
			<path class="st3" d="M415.7-33.7c-1.8-10.3-4.5-19.7-8-28.3l0,0c-0.1,0-0.2,0-0.4,0c-0.6,0.2-1,0.8-0.9,1.5
				c10.8,58-59.6,136.7-179.3,200.5c-99.2,52.8-188.7,81.9-252.2,81.9c-38.1,0-64.6-10.4-78.5-31c-0.2-0.4-0.6-0.5-1-0.5
				c-0.2,0-0.4,0-0.6,0.1c-0.1,0.1-0.2,0.2-0.3,0.3c2.9,7.7,6.2,15.4,9.9,23.2c16.9,18.3,43.9,27.6,80.4,27.6
				c66.9,0,160-31.4,255.4-86.2C350.6,92,412.6,25,415.7-33.7"/>
			<path class="st3" d="M409.2-58.2c-2.3-6.3-5.1-12.1-8.2-17.6c-0.1,0-0.1-0.1-0.1-0.1c-0.1,0-0.3,0-0.4,0.1
				c-0.6,0.2-1,0.8-0.9,1.4c10,57.8-58.1,132.3-182.3,199.4c-95.6,51.7-187.1,81.3-250.8,81.3c-34.6,0-59.4-8.6-73.8-25.4
				c-0.2-0.3-0.6-0.4-1-0.4c-0.2,0-0.4,0.1-0.6,0.2c-0.1,0-0.1,0.1-0.2,0.2c1.5,4.4,3.1,8.8,4.9,13.2c14.9,20.2,41.4,30.4,79.2,30.4
				c63.9,0,153.8-29.2,253.4-82.2C347.3,78.8,417.6,0.6,409.2-58.2"/>
			<path class="st4" d="M402.3-73.6c-3-5.5-6.3-10.7-10-15.5c-0.1,0-0.3,0-0.4,0.1c-0.5,0.3-0.8,1-0.5,1.6
				c20.1,48-61.8,136.1-186.5,200.7c-93.1,48.2-181.8,75.8-243.5,75.8c-40.2,0-66.4-11.7-75.9-33.9c-0.2-0.5-0.7-0.8-1.2-0.8
				c-0.1,0-0.3,0-0.4,0.1c-0.2,0.1-0.2,0.2-0.4,0.3c2.1,9.4,5,19,8.5,28.8c15.1,16.6,40.1,25.1,74.6,25.1c64.2,0,156-29.7,252-81.6
				C342.9,60,411.3-14.9,402.3-73.6"/>
			<path class="st4" d="M394.5-86.1c-3.4-4.7-7.1-9.1-11.1-13.1c-0.1,0-0.3,0-0.4,0.1c-0.5,0.4-0.7,1-0.4,1.6
				c23.3,45.5-56,128.1-188.7,196.3c-92,47.3-179.3,74.5-239.5,74.5c-36.1,0-60.6-10.2-70.8-29.4c-0.3-0.5-0.5-1.1-0.8-1.6
				c-0.2-0.5-0.7-0.8-1.2-0.8c-0.1,0-0.2,0-0.3,0c-0.1,0-0.2,0.2-0.4,0.3c0.9,5.5,2.1,11.1,3.5,16.8c10.8,21.7,37.2,33.1,76.9,33.1
				c62.1,0,151.3-27.7,244.7-76.1C329.9,51.4,411.7-36.5,394.5-86.1"/>
			<path class="st4" d="M385.6-96.7c-4.7-5-9.7-9.6-15.2-13.7c-0.2,0.1-0.3,0.1-0.4,0.2c-0.5,0.4-0.6,1-0.3,1.6
				c4.9,9.2,5.5,20.2,1.6,32.7C357.5-31.2,290.5,26.7,196.5,75.2c-95.9,49.4-189,79-249.2,79c-32.3,0-53.1-8.3-61.9-24.7
				c-2.4-4.4-4-9.5-4.8-15.2c-0.1-0.6-0.6-1.1-1.3-1.1h-0.1c-0.1,0-0.2,0.1-0.4,0.2c0,1.5-0.2,2.9-0.2,4.4c0,8.8,1,18.1,2.7,27.7
				c10.8,20,35.9,30.5,72.9,30.5c60.6,0,148.3-27.2,240.7-74.7C327.3,33.1,406.7-49.6,385.6-96.7"/>
			<path class="st4" d="M373.7-75.2c4-12.8,3.4-24.1-1.4-33.7c-4.9-3.8-10.1-7.1-15.6-10.2c-0.1,0.1-0.2,0-0.3,0.1
				c-0.4,0.4-0.4,1.1-0.1,1.6c0.4,0.6,0.8,1.2,1.2,1.7c4.7,7.9,5.4,17.4,2.1,28.4c-13.5,44.7-92,109-190.9,156.4
				C80.6,111.3-3.8,136.4-57.2,136.4c-30.8,0-50.4-8.1-58.1-24.1c-1.9-3.9-2.8-9-2.7-15c0-0.7-0.5-1.2-1.2-1.3h-0.1
				c-0.1,0-0.2,0.1-0.3,0.1c-1,6.9-1.7,13.9-1.7,21c1,4.9,2.3,9.4,4.4,13.3c9.2,17.3,30.7,26.1,64.1,26.1
				c60.6,0,154.1-29.6,250.4-79.2C292.2,28.6,359.7-29.9,373.7-75.2"/>
			<path class="st4" d="M362-86.5c3.5-11.7,2.7-22-2.4-30.5c-0.2-0.3-0.4-0.7-0.7-1c-9.1-5.3-19-9.4-29.4-12.8
				c-0.1,0.1-0.4,0.1-0.4,0.3c-0.2,0.6,0,1.3,0.6,1.6c4.8,2.3,8,4.8,9.6,7.2c4.1,6.3,4.8,14.1,2.2,23.2
				c-12,42-93.2,106.4-193.2,153.3C65.5,93.6-9.7,115.9-58,115.9c-28.7,0-47.2-7.8-53.6-22.6c-2.2-5.1-2.5-12-0.9-20.5
				c0.4-1.4,0.9-2.9,1.4-4.3c0.2-0.7-0.1-1.4-0.8-1.6c-0.1,0-0.3-0.1-0.4-0.1s-0.1,0.1-0.2,0.1c-3.8,11.1-6.4,22.4-7.7,34
				c0.3,4.8,1,9,2.6,12.4c8.2,16.9,28.5,25.5,60.3,25.5c53.7,0,138.6-25.3,227-67.6C269.3,23.8,348.3-41.1,362-86.5"/>
			<path class="st4" d="M344-97.6c2.8-9.9,2-18.4-2.5-25.3c-1.4-2.2-3.9-4.3-7.4-6.4c-8.9-3.1-18.2-5.5-27.8-7.3
				c-0.2,0.2-0.5,0.2-0.5,0.4c-0.2,0.6,0.2,1.3,0.8,1.5c6.8,2.4,11.3,5.3,13.3,8.8c3.2,5.3,3.6,12,1.2,19.8
				C309.6-67.6,237.1-9.8,145,34.5C64.1,73.6-9.4,95.9-56.7,95.9c-25.8,0-42.8-6.9-49.1-19.8c-2.7-5.6-2.8-12.5-0.3-20.5
				c0.2-0.6-0.1-1.3-0.8-1.6c-0.1-0.1-0.3-0.1-0.4-0.1c0,0,0,0-0.1,0c-3.3,7.6-6.1,15.3-8.3,23.1c-0.8,6.9-0.3,12.8,1.7,17.4
				c7,15.8,26.3,24.2,56.1,24.2c49.4,0,123-21.8,207.3-61.3C251.6,9.4,331.7-54.4,344-97.6"/>
			<path class="st4" d="M323.6-105.2c2.6-8.6,2.1-15.9-1.5-21.9c-2-3.3-5.7-6.1-11-8.4c-14.9-3.1-30.6-4.6-46.6-4.8
				c-0.1,0.2-0.2,0.3-0.2,0.4c0,0.7,0.4,1.3,1.1,1.3c15.2,1.8,24.9,5.7,28.2,11.4c2.6,4.6,2.9,10.2,0.8,16.8
				c-10.7,34.2-80,87.1-168.3,128.6C52,53.1-11.5,72.2-52.7,72.2c-22.8,0-37.1-5.8-42.7-17.4c-2.8-5.9-2.7-12.9,0.6-21
				c0.2-0.6,0-1.3-0.6-1.6c-0.2-0.1-0.4-0.1-0.6-0.1c-5.4,8.9-9.9,18.1-13.7,27.4c-1.3,6.7-0.8,12.6,1.6,17.5
				c6.9,14.1,24.2,21.2,51.4,21.2c47.6,0,121.6-22.4,202.8-61.5C238.9-7.7,311.8-66.2,323.6-105.2"/>
			<path class="st4" d="M296.8-109.6c2.3-7.3,1.9-13.6-1.1-18.8c-3.2-5.6-11.2-9.5-23.8-11.7c-3.3-0.1-6.7-0.3-10-0.3
				c-15.3,0-30.9,0.9-46.7,2.7c0,0.1-0.1,0.3-0.1,0.5c0.1,0.7,0.6,1.2,1.3,1.2l0,0c2.9-0.1,5.8-0.2,8.5-0.2
				c20.6,0,33.9,3.5,37.4,9.9c2.1,3.9,2.2,8.6,0.5,14c-9.4,28.7-72,75.4-152.4,113.4C47.1,31.1-10.4,48.3-47.3,48.3
				c-19.3,0-31.7-4.8-36-14c-2.9-6.2-1.4-14.3,4.5-23.9c0.3-0.6,0.2-1.3-0.4-1.7c-0.1-0.1-0.3-0.1-0.4-0.1
				c-6.9,8.7-13.1,17.8-18.4,27c-2.5,7.8-2.5,14.6,0.3,20.5c6,12.5,21.1,18.8,44.9,18.8c41.6,0,105.4-19.3,179.8-54.3
				C216.1-21.3,285.9-74.8,296.8-109.6"/>
			<path class="st2" d="M226-138.8c-18,1.5-36.3,4.3-54.5,8c0,0.2-0.1,0.3-0.1,0.5c0.1,0.6,0.6,1,1.2,1c0.1,0,0.1,0,0.2,0
				c8.7-1.3,16.6-1.9,23.5-1.9c15.7,0,25.8,3.4,28.6,9.5c9.6,21-47.8,68.2-127.8,105.3C43.9,8.3-8.2,23.7-38.9,23.7
				c-14.4,0-23.6-3.4-26.6-9.8c-3.9-8.4,2.7-21.8,18.7-37.8c0.5-0.5,0.5-1.3,0-1.8c-0.1-0.1-0.3-0.1-0.5-0.2
				C-60.8-13.7-72.7-0.8-82.9,12.7c-4.5,8.8-5.6,16.4-2.7,22.6c4.7,10.1,17.9,15.4,38.3,15.4c37.2,0,95.1-17.3,158.7-47.4
				c82.2-38.9,144-85.1,153.7-114.9c2-6.1,1.8-11.5-0.7-16C259.5-136.6,241.1-138.7,226-138.8"/>
			<path class="st2" d="M227.3-122.7c-3.3-7.2-14-11-30.9-11c-4.1,0-8.7,0.3-13.5,0.7c-25.2,4.5-50.3,11.1-74.8,19.4
				c0,0.2-0.1,0.3,0,0.5c0.2,0.5,0.7,0.9,1.2,0.9c0.1,0,0.2,0,0.4,0c20.3-6.2,37.9-9.4,50.9-9.4c11.6,0,19,2.6,21.3,7.5
				C189.2-98.3,145-62,83.2-33.4C42.1-14.3,1.7-2.5-22.4-2.5c-11.1,0-18.2-2.5-20.4-7.3C-46.6-18-36.6-32.3-15.5-49
				c0.5-0.4,0.6-1.2,0.2-1.8c-0.1-0.1-0.3-0.1-0.4-0.2c-14.4,10.3-27.7,21.3-39.7,33C-67.1-4.4-71.3,6.9-67.6,15
				c3.5,7.5,13.2,11.2,28.9,11.2c31.5,0,82.7-15.1,137.1-40.3C182.2-53,237.7-99.8,227.3-122.7"/>
			<path class="st2" d="M184-115.2c-2.8-6-10.7-9-23.6-9c-9.4,0-21.1,1.7-34.3,4.8c-56.5,17-110.4,43.6-153.4,77
				C-42.5-28.5-49-16.6-45.3-8.7c2.7,5.8,10.3,8.8,22.7,8.8c24.4,0,65.3-11.9,106.7-31.2C149.3-61.4,192.2-97.5,184-115.2
				 M68.3-51.2C40.7-38.5,14.2-30.7-0.9-30.7c-6.2,0-10.2-1.3-11.3-3.9c-3.9-8.5,21-30.9,64.3-50.8c26.6-12.2,52.8-19.8,68.3-19.8
				c6.7,0,10.9,1.4,12.2,4.1C136.4-93.1,112.8-71.7,68.3-51.2"/>
			<path class="st2" d="M135-102.2c-1.7-3.7-6.6-5.6-14.5-5.6c-15.9,0-42.5,7.7-69.4,20C14.4-70.9-20.2-46.1-14.5-33.6
				c1.6,3.6,6.2,5.4,13.6,5.4c15.4,0,42.3-7.9,70.2-20.8C106.3-65.9,140.7-89.6,135-102.2 M99.5-90.7c-1.3,4.7-14.4,15-36.9,25.5
				c-17.5,8.3-34.4,13.6-42.9,13.6c-2.4,0-4.1-0.4-4.6-1.2c-0.1-0.1-0.3-0.5-0.1-1.4c1.3-4.8,14.7-15.6,36.8-26
				c17-8,33.7-13.2,42.6-13.2c2.6,0,4.4,0.5,4.9,1.3C99.5-91.9,99.7-91.6,99.5-90.7"/>
			<path class="st2" d="M101.5-93.5c-1.1-1.6-3.4-2.4-7-2.4c-9.2,0-26.4,5.3-43.7,13.4c-20.7,9.8-36.4,21.1-38.2,27.6
				c-0.5,1.7,0,2.8,0.4,3.5c1.1,1.6,3.2,2.3,6.7,2.3c8.9,0,26.2-5.4,44-13.8c17.6-8.3,36.2-19.9,38.2-27.2
				C102.4-91.7,101.9-92.8,101.5-93.5"/>
		</g>
	</g>
</g>
</svg>
